<?xml version="1.0" encoding="UTF-8"?>
<svg id="Layer_1" data-name="Layer 1" xmlns="http://www.w3.org/2000/svg" viewBox="0 0 218.77 218.81">
  <defs>
    <style>
      .cls-1 {
        fill: #284e3d;
      }

      .cls-2 {
        fill: #dcaa2d;
      }

      .cls-3 {
        fill: #ddd;
      }
    </style>
  </defs>
  <rect class="cls-3" x="6.32" y="9.71" width="202.82" height="199.43"/>
  <path class="cls-2" d="M218.77,218.76H0V0h218.77v218.76ZM9.63,209.14h199.51V9.63H9.63v199.51Z"/>
  <g>
    <path class="cls-1" d="M133.86,59.02c2.45-.31,9.15-.87,10.39,1.7.25,6.14-2.85,9.67-2.17,16.44,1.64,16.23,17.17,15.68,27.62,21.4,10.23,5.59,3.72,11.2.91,19.55-4,11.88-5.69,22.58-2.67,34.96,2.13,8.77,10.02,20.69,5.68,29.48-6.25,12.64-23.88-2.64-29.69-8.57-12.53-12.78-19.94-27.18-21.07-45.31-.49-7.8,1.44-14.13-.3-22.04-2.03-9.22-9.15-16.38-12.24-24.99-3.63-10.1-1.08-11.74,7.38-16.44,4.45-2.47,11.15-5.53,16.17-6.17ZM158.21,110.99c-6.93-1.76-13.82-3.76-21.09-3.1l.61,6.82c6.41-.69,12.37,1.59,18.59,2.46l1.89-6.18ZM154.49,122.15c-5.81-1.04-11.39-2.47-17.38-1.87v6.83c5.55-.52,10.76.65,16.11,1.84l1.27-6.81ZM152.62,141.38c-.27-1.7.68-6.18-.6-7.15-1.35-1.02-13.53-2.18-14.28-1.53l1.27,6.79c4.69-.45,9.09,1.09,13.62,1.89ZM153.86,154.41l-1.22-7.15-11.8-2.15c-.57.53,1.83,6.51,3.1,7.13l9.92,2.17Z"/>
    <path class="cls-1" d="M100.32,65.5c-.81.75-2.88,1.42-4.1,2.42-10.57,8.65-3.29,19.56,0,29.72-1.23,15.9-6.75,28.2-17.11,40.03-5.86,6.69-26.19,27.42-33.55,13.06-4.36-8.5,3.71-21.01,5.75-29.69,2.59-11.07,1.29-21.04-1.99-31.77-1.05-3.43-6.16-14.03-5.78-16.29,1.17-7.11,17.57-9.55,23.26-12.77,7.58-4.29,11.24-12.16,10.08-20.84-.48-3.57-5.64-11.07,1.02-12.11,7.88-1.23,17.54,2.78,24.27,6.68,7.58,4.4,9.83,5.43,7.05,14.71-.85,2.84-7.01,15.1-8.89,16.85ZM81.89,75.62c-7.11.81-14.48.97-21.09,4.02l2.84,5.85c5.66-1.94,11.65-2.85,17.64-3.05l.61-6.83ZM81.9,88.64c-6.02-.44-11.58.42-17.38,1.87l1.25,6.82c5.19-1.57,10.66-2.59,16.13-2.48v-6.21ZM81.27,101.06c-5.07-.37-9.91.31-14.86,1.27l-.03,7.41,13.56-2.56,1.32-6.12ZM78.79,113.47c-4.2-.31-8.26,1-12.27,1.99l-1.37,7.31,10.51-2.83,3.14-6.47Z"/>
    <path class="cls-1" d="M102.37,72.52c-1.75,15.5,13.68,25.89,14.3,40.61.21,5.02-.94,10.24-.67,15.57,1.21,23.78,12.92,41.88,30.76,56.73l8.98,6.22c-6.75.83-13.13-4.16-18-8.36-14.18-12.21-24.43-28.2-25.97-47.24-1.17-14.47,2.37-20.96-4.72-34.99-3.7-7.32-16.59-23.5-4.67-28.52Z"/>
    <path class="cls-1" d="M63.9,159.99c18.56-12.75,34.23-30.46,38.15-53.35,8.1,12.16-5.18,28.66-13.32,37.55-6.04,6.6-15.49,15.88-24.83,15.8Z"/>
    <path class="cls-1" d="M110.44,61.34c2.69-4.42,5.33-9.46,6.14-14.64.25-1.63-.13-3.37.06-4.91.26-2.02,3.09.48,3.74,1.24,2.45,2.88.7,11.88-1.9,14.25-.6.54-7.66,4.37-8.03,4.06Z"/>
  </g>
</svg>